<svg id="Layer_1" data-name="Layer 1" xmlns="http://www.w3.org/2000/svg" viewBox="0 0 20 20"><title>analytics</title><g id="Combined-Shape"><path id="path-1" d="M14,2h-3.9a.65.65,0,0,0-.59.7V21.3a.65.65,0,0,0,.59.7H14a.65.65,0,0,0,.59-.7V2.7A.65.65,0,0,0,14,2Zm-.58,18.6H10.63v-7h2.74ZM6.49,10.37a.63.63,0,0,1,.58.6V21.3a.67.67,0,0,1-.5.69h-4A.63.63,0,0,1,2,21.4V11.07a.67.67,0,0,1,.5-.69h4Zm14.92,0A.63.63,0,0,1,22,11V21.3a.67.67,0,0,1-.5.69h-4a.63.63,0,0,1-.58-.6V11.07a.67.67,0,0,1,.5-.69h4ZM5.91,18.28H3.17V20.6H5.91Zm14.92,0H18.09V20.6h2.74ZM5.91,11.77H3.17v5.11H5.91Zm14.92,0H18.09v5.11h2.74ZM13.37,3.4v8.83H10.63V3.4Z" transform="translate(-2 -2)" fill="#bfc5d2"/></g></svg>