<?xml version="1.0" encoding="UTF-8"?>
<svg width="16px" height="16px" viewBox="0 0 16 16" version="1.1" xmlns="http://www.w3.org/2000/svg" xmlns:xlink="http://www.w3.org/1999/xlink">
    <!-- Generator: Sketch 57.1 (83088) - https://sketch.com -->
    <title>Element/Icon/Options</title>
    <desc>Created with Sketch.</desc>
    <g id="Element/Icon/Options" stroke="none" stroke-width="1" fill="none" fill-rule="evenodd">
        <path d="M2,6.5 C2.82842712,6.5 3.5,7.17157288 3.5,8 C3.5,8.82842712 2.82842712,9.5 2,9.5 C1.17157288,9.5 0.5,8.82842712 0.5,8 C0.5,7.17157288 1.17157288,6.5 2,6.5 Z M8,6.5 C8.82842712,6.5 9.5,7.17157288 9.5,8 C9.5,8.82842712 8.82842712,9.5 8,9.5 C7.17157288,9.5 6.5,8.82842712 6.5,8 C6.5,7.17157288 7.17157288,6.5 8,6.5 Z M14,6.5 C14.8284271,6.5 15.5,7.17157288 15.5,8 C15.5,8.82842712 14.8284271,9.5 14,9.5 C13.1715729,9.5 12.5,8.82842712 12.5,8 C12.5,7.17157288 13.1715729,6.5 14,6.5 Z" id="🎨-Icon-color" fill="#BFC5D2"></path>
    </g>
</svg>