<?xml version="1.0" encoding="UTF-8"?>
<svg width="664px" height="328px" viewBox="0 0 664 328" version="1.1" xmlns="http://www.w3.org/2000/svg" xmlns:xlink="http://www.w3.org/1999/xlink">
    <!-- Generator: Sketch 57.1 (83088) - https://sketch.com -->
    <title>Module/Card/Line Chart #2 Tablet</title>
    <desc>Created with Sketch.</desc>
    <defs>
        <linearGradient x1="50%" y1="0%" x2="50%" y2="100%" id="linearGradient-1">
            <stop stop-color="#2E5BFF" offset="0%"></stop>
            <stop stop-color="#2E5BFF" stop-opacity="0" offset="100%"></stop>
        </linearGradient>
        <linearGradient x1="50%" y1="0%" x2="50%" y2="100%" id="linearGradient-2">
            <stop stop-color="#8C54FF" offset="0%"></stop>
            <stop stop-color="#8C54FF" stop-opacity="0" offset="100%"></stop>
        </linearGradient>
    </defs>
    <g id="Symbols" stroke="none" stroke-width="1" fill="none" fill-rule="evenodd">
        <g id="Module/Card/Line-Chart-#2-Tablet" transform="translate(-28.000000, -76.000000)">
            <g transform="translate(28.000000, 71.000000)" id="Chart">
                <g>
                    <g id="Grid" transform="translate(45.000000, 31.000000)" stroke-linecap="square">
                        <g id="vertical" opacity="0.5" transform="translate(60.000000, 1.000000)" stroke="#8097B1" stroke-dasharray="2,2,2" stroke-width="0.5">
                            <path d="M1.02398524,0.739990234 L1.02398524,274.333074" id="Line-1" opacity="0.606809701"></path>
                            <path d="M62.4630996,0.739990234 L62.4630996,274.333074" id="Line-2" opacity="0.606809701"></path>
                            <path d="M123.902214,0.739990234 L123.902214,274.333074" id="Line-3" opacity="0.606809701"></path>
                            <path d="M185.341328,0.739990234 L185.341328,274.333074" id="Line-3" opacity="0.606809701"></path>
                            <path d="M246.780443,0.739990234 L246.780443,274.333074" id="Line-3" opacity="0.606809701"></path>
                            <path d="M308.219557,0.739990234 L308.219557,274.333074" id="Line-3" opacity="0.606809701"></path>
                            <path d="M369.658672,0.739990234 L369.658672,274.333074" id="Line-3" opacity="0.606809701"></path>
                            <path d="M431.097786,0.74 L431.097786,274.333074" id="Line-4" opacity="0.606809701"></path>
                            <path d="M492.5369,0.739990234 L492.5369,274.333074" id="Line-1" opacity="0.606809701"></path>
                            <path d="M553.976015,0.739990234 L553.976015,274.333074" id="Line-2" opacity="0.606809701"></path>
                        </g>
                        <g id="horizontal" opacity="0.5" transform="translate(1.000000, 0.000000)" stroke="#8097B1" stroke-dasharray="2,2,2,2" stroke-width="0.5">
                            <path d="M1.28845099,228.25 L613.399418,228.25" id="Line-3" opacity="0.756413246"></path>
                            <path d="M0.237966534,183.25 L612.348934,183.25" id="Line-4" opacity="0.756413246"></path>
                            <path d="M1.28845099,137.25 L613.399418,137.25" id="Line-5" opacity="0.756413246"></path>
                            <path d="M0.237966534,91.25 L612.348934,91.25" id="Line-6" opacity="0.756413246"></path>
                            <path d="M1.28845099,46.25 L613.399418,46.25" id="Line-5" opacity="0.756413246"></path>
                            <path d="M0.237966534,0.25 L612.349027,0.25" id="Line-6" opacity="0.756413246"></path>
                        </g>
                        <path d="M1,1 L1,274" id="Line" stroke="#E0E7FF"></path>
                        <path d="M1,274.5 L613,274.5" id="Line" stroke="#E0E7FF"></path>
                    </g>
                    <g id="Y-Axis" transform="translate(0.000000, 25.000000)" fill="#B0BAC9" font-family="Rubik-Regular, Rubik" font-size="15" font-weight="normal" line-spacing="22">
                        <text id="$5k">
                            <tspan x="10.2" y="239">$5k</tspan>
                        </text>
                        <text id="0">
                            <tspan x="26.505" y="284">0</tspan>
                        </text>
                        <text id="$10k">
                            <tspan x="3.21" y="194">$10k</tspan>
                        </text>
                        <text id="$15k">
                            <tspan x="3.825" y="149">$15k</tspan>
                        </text>
                        <text id="$20k">
                            <tspan x="0.825" y="104">$20k</tspan>
                        </text>
                        <text id="$25k">
                            <tspan x="1.44" y="59">$25k</tspan>
                        </text>
                        <text id="$30k">
                            <tspan x="0.615" y="14">$30k</tspan>
                        </text>
                    </g>
                    <g id="X-Axis-" transform="translate(73.000000, 314.000000)" fill="#B0BAC9" font-family="Rubik-Regular, Rubik" font-size="15" font-weight="normal" line-spacing="22">
                        <text id="Mar-1">
                            <tspan x="0.075" y="14">Mar 1</tspan>
                        </text>
                        <text id="Mar-8">
                            <tspan x="54.0075" y="14">Mar 8</tspan>
                        </text>
                        <text id="Mar-15">
                            <tspan x="111.135" y="14">Mar 15</tspan>
                        </text>
                        <text id="Mar-22">
                            <tspan x="174.0025" y="14">Mar 22</tspan>
                        </text>
                        <text id="Mar-29">
                            <tspan x="239.45" y="14">Mar 29</tspan>
                        </text>
                        <text id="Apr-5">
                            <tspan x="306.43" y="14">Apr 5</tspan>
                        </text>
                        <text id="Apr-12">
                            <tspan x="362.3025" y="14">Apr 12</tspan>
                        </text>
                        <text id="Apr-19">
                            <tspan x="424.25" y="14">Apr 19</tspan>
                        </text>
                        <text id="Apr-26">
                            <tspan x="486.49" y="14">Apr 26</tspan>
                        </text>
                        <text id="May-2">
                            <tspan x="551.085" y="14">May 2</tspan>
                        </text>
                    </g>
                    <g id="Legend" transform="translate(499.000000, 0.000000)">
                        <g id="Group-3">
                            <text id="Revenue" font-family="Rubik-Regular, Rubik" font-size="15" font-weight="normal" line-spacing="22" fill="#8798AD">
                                <tspan x="19" y="14">Revenue</tspan>
                            </text>
                            <circle id="Oval-2" fill="#2E5BFF" cx="5" cy="11" r="5"></circle>
                        </g>
                        <g id="Group-3" transform="translate(103.000000, 0.000000)">
                            <text id="Trips" font-family="Rubik-Regular, Rubik" font-size="15" font-weight="normal" line-spacing="22" fill="#8798AD">
                                <tspan x="19" y="14">Trips</tspan>
                            </text>
                            <circle id="Oval-2" fill="#8C54FF" cx="5" cy="11" r="5"></circle>
                        </g>
                    </g>
                    <g id="Chart-Figure" transform="translate(41.000000, 80.000000)">
                        <g id="Blue">
                            <polygon id="Path-5" fill-opacity="0.100000001" fill="url(#linearGradient-1)" points="4.09868421 153.5 64.5542763 121 127.059211 140.5 189.051809 82.5 249.507401 10.5 312.012336 26.5 371.955592 76 434.460526 107 495.940789 74 555.371711 61.5 618.38898 3 618.38898 226 4.60567402 226"></polygon>
                            <polyline id="Path-5" stroke="#2E5BFF" stroke-width="2" points="4.09868421 153.5 64.5542763 121 127.059211 140.5 189.051809 82.5 249.507401 10.5 312.012336 26.5 371.955592 76 434.460526 107 495.940789 74 555.371711 61.5 618.38898 3"></polyline>
                            <circle id="Oval" stroke="#2E5BFF" stroke-width="2" fill="#FFFFFF" cx="4.09868421" cy="153" r="3"></circle>
                            <circle id="Oval" stroke="#2E5BFF" stroke-width="2" fill="#FFFFFF" cx="64.5542763" cy="122" r="3"></circle>
                            <circle id="Oval" stroke="#2E5BFF" stroke-width="2" fill="#FFFFFF" cx="127.059211" cy="140" r="3"></circle>
                            <circle id="Oval" stroke="#2E5BFF" stroke-width="2" fill="#FFFFFF" cx="250.019737" cy="11" r="3"></circle>
                            <circle id="Oval" stroke="#2E5BFF" stroke-width="2" fill="#FFFFFF" cx="187.514803" cy="84" r="3"></circle>
                            <circle id="Oval" stroke="#2E5BFF" stroke-width="2" fill="#FFFFFF" cx="311.5" cy="26" r="3"></circle>
                            <circle id="Oval" stroke="#2E5BFF" stroke-width="2" fill="#FFFFFF" cx="371.955592" cy="76" r="3"></circle>
                            <circle id="Oval" stroke="#2E5BFF" stroke-width="2" fill="#FFFFFF" cx="435.485197" cy="107" r="3"></circle>
                            <circle id="Oval" stroke="#2E5BFF" stroke-width="2" fill="#FFFFFF" cx="495.940789" cy="74" r="3"></circle>
                            <circle id="Oval" stroke="#2E5BFF" stroke-width="2" fill="#FFFFFF" cx="555.371711" cy="61" r="3"></circle>
                            <circle id="Oval" stroke="#2E5BFF" stroke-width="2" fill="#FFFFFF" cx="618.901316" cy="4" r="3"></circle>
                        </g>
                        <g id="Purple" transform="translate(0.000000, 52.000000)">
                            <polygon id="Path-6" fill="url(#linearGradient-2)" opacity="0.100000001" points="4.61101974 136.5 65.0666118 130.5 125.522204 107 186.490132 114.5 249.507401 71.5 309.962993 55 373.492599 109.5 432.411184 95.75 495.428454 119.5 557.421053 51.5 618.38898 4 618.38898 174.506598 4.61101974 174.506598"></polygon>
                            <polyline id="Path-6" stroke="#8C54FF" stroke-width="2" points="4.61101974 136.5 65.0666118 130.5 125.522204 107 186.490132 114.5 249.507401 71.5 309.962993 55 373.492599 109.5 432.411184 95.75 495.428454 119.5 557.421053 51.5 618.38898 4"></polyline>
                            <circle id="Oval" stroke="#8C54FF" stroke-width="2" fill="#FFFFFF" cx="618.901316" cy="4" r="3"></circle>
                            <circle id="Oval" stroke="#8C54FF" stroke-width="2" fill="#FFFFFF" cx="495.940789" cy="119" r="3"></circle>
                            <circle id="Oval" stroke="#8C54FF" stroke-width="2" fill="#FFFFFF" cx="372.980263" cy="109" r="3"></circle>
                            <circle id="Oval" stroke="#8C54FF" stroke-width="2" fill="#FFFFFF" cx="433.435855" cy="96" r="3"></circle>
                            <circle id="Oval" stroke="#8C54FF" stroke-width="2" fill="#FFFFFF" cx="309.450658" cy="56" r="3"></circle>
                            <circle id="Oval" stroke="#8C54FF" stroke-width="2" fill="#FFFFFF" cx="250.019737" cy="71" r="3"></circle>
                            <circle id="Oval" stroke="#8C54FF" stroke-width="2" fill="#FFFFFF" cx="186.490132" cy="114" r="3"></circle>
                            <circle id="Oval" stroke="#8C54FF" stroke-width="2" fill="#FFFFFF" cx="126.034539" cy="107" r="3"></circle>
                            <circle id="Oval" stroke="#8C54FF" stroke-width="2" fill="#FFFFFF" cx="64.5542763" cy="130" r="3"></circle>
                            <circle id="Oval" stroke="#8C54FF" stroke-width="2" fill="#FFFFFF" cx="4.09868421" cy="137" r="3"></circle>
                        </g>
                    </g>
                </g>
            </g>
        </g>
    </g>
</svg>